<?xml version="1.0" encoding="utf-8"?>
<!-- Generator: Adobe Illustrator 19.2.1, SVG Export Plug-In . SVG Version: 6.00 Build 0)  -->
<svg version="1.1" id="Layer_1" xmlns="http://www.w3.org/2000/svg" xmlns:xlink="http://www.w3.org/1999/xlink" x="0px" y="0px"
	 viewBox="0 0 95.7 57.4" enable-background="new 0 0 95.7 57.4" xml:space="preserve">
<path fill='#333' d="M26.8,16.9c-5.8-0.1-11.1,2.3-14.9,6.2c-0.2-1.4-0.3-2.8-0.3-4.2C11.8,8.7,21.1,2.3,31.5,2.5L29.7,0C13.4-0.8,0.3,12,0,28
	c-0.3,16,9.2,29.1,25.6,29.3l0-0.1c0.2,0,0.3,0.1,0.4,0.1c11.2,0.2,20.4-8.7,20.6-19.9C46.9,26.3,38,17.1,26.8,16.9"/>
<path fill='#333' d="M75.8,16.9C70,16.8,64.7,19.3,61,23.2c-0.2-1.4-0.3-2.8-0.3-4.2C60.8,8.8,70.1,2.4,80.6,2.6l-1.8-2.4
	C62.4-0.7,49.3,12.1,49,28c-0.3,16,9.2,29.1,25.6,29.3l0-0.1c0.2,0,0.3,0.1,0.4,0.1c11.2,0.2,20.4-8.7,20.6-19.9
	C95.9,26.4,87,17.1,75.8,16.9"/>
</svg>
