<?xml version="1.0" encoding="utf-8"?>
<!-- Generator: Adobe Illustrator 19.2.1, SVG Export Plug-In . SVG Version: 6.00 Build 0)  -->
<svg version="1.1" id="Layer_1" class='cia__headline-svg cia__headline-svg--black-site' xmlns="http://www.w3.org/2000/svg" xmlns:xlink="http://www.w3.org/1999/xlink" x="0px" y="0px"
	 viewBox="0 0 959 79.1" style="enable-background:new 0 0 959 79.1;" xml:space="preserve">
<style type="text/css">
	.st0{fill:#FFFFFF;}
</style>
<g id="lower">
	<rect x="184" y="56" class="st0" width="5" height="10"/>
	<path class="st0" d="M136,56h-5.2c0.3,4,1.1,7,2.2,10h5.5C137.2,63,136.3,60,136,56z"/>
	<polygon class="st0" points="207.1,56 201.1,56 207.8,66 213.9,66 	"/>
	<rect x="301" y="56" class="st0" width="5" height="10"/>
	<rect x="252" y="65" class="st0" width="4" height="1"/>
	<path class="st0" d="M288,66c0.2-1,0.3-2.4,0.3-3.4c0-2.4-0.3-4.6-1-6.6h-5.8c1.2,2,1.8,4.2,1.8,7.2c0,0.8-0.1,1.8-0.2,2.8H288z"/>
	<path class="st0" d="M353.2,56H348c0.3,4,1,7,2,10h5.5C354.3,63,353.5,60,353.2,56z"/>
	<rect x="63" y="56" class="st0" width="5" height="10"/>
	<rect x="426" y="56" class="st0" width="5" height="10"/>
	<rect x="546" y="56" class="st0" width="5" height="10"/>
	<rect x="324" y="56" class="st0" width="5" height="10"/>
	<path class="st0" d="M50.1,56h-5.4c-0.4,4-1.2,7-2.5,10h5.5C48.9,63,49.7,60,50.1,56z"/>
	<rect x="7" y="56" class="st0" width="5" height="10"/>
	<rect x="113" y="56" class="st0" width="5" height="10"/>
	<path class="st0" d="M86,64.1v-3.5c0-1.6,0-2.5,0.5-4.5h-5.1C81,58,81,59.2,81,60.9v3.4c0,0.5-0.2,0.7-0.2,1.7h5.1
		C85.8,65,86,64.6,86,64.1z"/>
	<path class="st0" d="M867.9,56h-5.2c-0.4,4-1.2,7-2.3,10h5.3C866.7,63,867.5,60,867.9,56z"/>
	<path class="st0" d="M826.7,56h-5.1c0.4,4,1.1,7,2.2,10h5.2C827.9,63,827.1,60,826.7,56z"/>
	<path class="st0" d="M813.4,56h-5.2c-0.4,4-1.2,7-2.3,10h5.3C812.3,63,813,60,813.4,56z"/>
	<path class="st0" d="M772.3,56h-5.1c0.4,4,1.1,7,2.2,10h5.2C773.5,63,772.6,60,772.3,56z"/>
	<rect x="948" y="56" class="st0" width="5" height="10"/>
	<rect x="881" y="56" class="st0" width="5" height="10"/>
	<rect x="914" y="56" class="st0" width="6" height="10"/>
	<rect x="510" y="56" class="st0" width="5" height="10"/>
	<path class="st0" d="M455.7,56h-5.1c0.4,4,1.1,7,2.2,10h5.2C456.8,63,456,60,455.7,56z"/>
	<path class="st0" d="M582,64.2V56h-5v9.5c0,0.1-0.3,0.5-0.3,0.5h5.2C581.8,65,582,64.7,582,64.2z"/>
	<path class="st0" d="M496.8,56h-5.2c-0.4,4-1.2,7-2.3,10h5.3C495.7,63,496.4,60,496.8,56z"/>
	<rect x="740" y="56" class="st0" width="5" height="10"/>
	<path class="st0" d="M667.6,56h-5.1c0.3,4,1,7,2,10h5.5C668.8,63,668,60,667.6,56z"/>
	<rect x="612" y="56" class="st0" width="6" height="10"/>
	<rect x="635" y="56" class="st0" width="5" height="10"/>
</g>
<g id="base">
	<polygon class="st0" points="301,56 306,56 306,20 295,20 295,24 301,24 	"/>
	<rect x="301" y="4" class="st0" width="6" height="5"/>
	<path class="st0" d="M353.2,56c-0.1-1-0.2-2.5-0.2-4.1V50h39v-6.3c0-17.7-8.4-24.2-20.7-24.2c-13.1,0-23.3,7.5-23.3,27.5v4.7
		c0,1.6-0.1,3.2,0,4.2H353.2z M371.2,23.3c9.5,0,15.8,5.1,15.8,19.7v3h-34.1C352.9,29,361.3,23.3,371.2,23.3z"/>
	<polygon class="st0" points="324,56 329,56 329,24 343,24 343,20 329,20 329,8 324,8 324,20 317,20 317,24 324,24 	"/>
	<path class="st0" d="M97,46.1c-7.6,1-13.7,3.9-15.6,9.9h5.1c1.7-4,6.1-6.2,12.1-6.8L113,48v8h5V34c0-10.8-6.3-14.4-16.2-14.4
		C95,19.6,89,21.3,85,23.2v3.6c3-1.6,10-3,15.9-3c8,0,12.1,2.4,12.1,10.9v9.6L97,46.1z"/>
	<path class="st0" d="M265.4,49l6.3,1.7c4.5,1.3,7.8,3.4,9.6,5.4h5.8c-1.9-5-6.6-7.7-13.3-9.7l-6.3-1.7c-7.1-2-10-4.3-10-11
		c0-6,3.8-10.3,13.5-10.3c4.9,0,8.9,0.8,10.9,1.8V32h4V22c-4-1.6-8.7-2.5-14.9-2.5c-12.9,0-18.3,6.3-18.3,14.6
		C252.9,42.6,257,46.5,265.4,49z"/>
	<polygon class="st0" points="426,56 431,56 431,24 445,24 445,20 431,20 431,8 426,8 426,20 419,20 419,24 426,24 	"/>
	<polygon class="st0" points="63,56 68,56 68,0 57,0 57,3 63,3 	"/>
	<polygon class="st0" points="184,56 189,56 189,55.5 195.6,48.5 201.1,56 207.1,56 199.1,45.1 219.4,24 225,24 225,20 208,20 
		208,24 214.4,24 189,50.8 189,0 177,0 177,3 184,3 	"/>
	<path class="st0" d="M136,56c-0.1-1,0-2.5,0-4.1v-6.2c0-17.1,9.1-22.3,19.1-22.3c4.4,0,7.9,0.4,10.9,1.7V35h5V21.9
		c-4-1.6-9.9-2.4-15.8-2.4c-13.3,0-24.2,7.1-24.2,26.9v5.7c0,1.5-0.3,2.9-0.2,3.9H136z"/>
	<path class="st0" d="M635,56h5V34c5-5.5,12-9.3,19-9.3v-4.6c-8,0-14.5,3.9-18.5,9.9H640V20h-11v4h6V56z"/>
	<path class="st0" d="M740,56h5V34c4-5.5,11-9.3,19-9.3v-4.6c-8,0-14.8,3.9-18.9,9.9H745V20h-11v4h6V56z"/>
	<path class="st0" d="M667.6,56c-0.1-1-0.6-2.5-0.6-4.1V50h39v-6.3c0-17.7-8.4-24.2-20.7-24.2c-13.1,0-23.3,7.5-23.3,27.5v4.7
		c0,1.6,0.3,3.2,0.5,4.2H667.6z M685.4,23.3c9.5,0,15.6,5.1,15.6,19.7v3h-33.6C667.4,29,675.5,23.3,685.4,23.3z"/>
	<path class="st0" d="M7,56h5V30.1c4-3.9,9.8-6.4,15.9-6.4c10.4,0,17.1,4.1,17.1,21.9v5.5c0,1.9-0.1,3.9-0.3,4.9h5.4
		c0.2-2-0.1-3.5-0.1-5.6v-4.7c0-20.9-8.6-25.9-20.7-25.9C21.9,19.8,16,23,11.8,27H12V0H0v3h7V56z"/>
	<path class="st0" d="M772.3,56c-0.1-1-0.3-2.6-0.3-4.2v-5.1c0-17.1,7.7-23.1,18-23.1c10.5,0,18,6,18,23.1v5.1
		c0,1.6,0.4,3.2,0.2,4.2h5.2c0.2-1,0.6-3.1,0.6-5v-3.9c0-19.9-10.2-27.6-23.6-27.6S767,27.5,767,47.2V51c0,1.9,0,4,0.2,5H772.3z"/>
	<path class="st0" d="M881,56h5V29.3c6-3.3,11.3-5.6,17.3-5.6c8.1,0,10.7,3.4,10.7,10.5V56h6V34.3c0-1.6-0.2-3.2-0.4-4.6
		c5.2-3.5,11.6-6,17.6-6c7.8,0,10.8,3.3,10.8,10.5V56h5V32.6c0-9.1-4.8-12.9-13.9-12.9c-7.6,0-14.1,3.3-20.3,7.3h-0.2
		c-1.8-5-5.9-7.3-12.9-7.3c-7.6,0-13.5,2.3-19.5,6.3H886v-6h-11v4h6V56z"/>
	<polygon class="st0" points="546,56 551,56 551,24 565,24 565,20 551,20 551,8 546,8 546,20 539,20 539,24 546,24 	"/>
	<path class="st0" d="M510,56h5V34c4-5.5,11-9.3,19-9.3v-4.6c-8,0-14.8,3.9-18.8,9.9H515V20h-11v4h6V56z"/>
	<path class="st0" d="M455.7,56c-0.1-1-0.7-2.6-0.7-4.2v-5.1c0-17.1,8.2-23.1,18.5-23.1c10.5,0,18.5,6,18.5,23.1v5.1
		c0,1.6-0.2,3.2-0.4,4.2h5.2c0.2-1,0.2-3.1,0.2-5v-3.9c0-19.9-10.2-27.6-23.6-27.6S450,27.5,450,47.2V51c0,1.9,0.4,4,0.6,5H455.7z"
		/>
	<polygon class="st0" points="612,56 618,56 618,20 606,20 606,24 612,24 	"/>
	<polygon class="st0" points="577,56 582,56 582,20 570,20 570,24 577,24 	"/>
	<path class="st0" d="M826.7,56c-0.1-1,0.3-2.6,0.3-4.2v-5.1c0-17.1,7.7-23.1,18-23.1c10.5,0,18,6,18,23.1v5.1
		c0,1.6-0.2,3.2-0.3,4.2h5.2c0.2-1,0.1-3.1,0.1-5v-3.9c0-19.9-10.2-27.6-23.6-27.6S821,27.5,821,47.2V51c0,1.9,0.5,4,0.6,5H826.7z"
		/>
	<polygon class="st0" points="640,66 635,66 635,74 629,74 629,78 647,78 647,74 640,74 	"/>
	<path class="st0" d="M670,66h-5.5c3.6,9,11.5,12.9,22.5,12.9c7.8,0,14-2.1,18-4.3V71c-5,2.1-10,3.9-17.2,3.9
		C679.6,74.9,673.3,72,670,66z"/>
	<path class="st0" d="M551,67.5V66h-5v2.2c0,7.2,3.6,10.4,10.7,10.4c3,0,6.3-0.5,8.3-1.3V74c-1,0.4-4.9,0.7-6.7,0.7
		C553.1,74.8,551,72.4,551,67.5z"/>
	<path class="st0" d="M618,66h-6v2.7c-5,3.7-12.5,6.2-18.1,6.2c-7.6,0-11.5-2.8-12-8.8h-5.2c0.1,9,5.3,13,15.4,13
		c7.3,0,14.8-3,20.2-7H612v6h12v-4h-6V66z"/>
	<polygon class="st0" points="515,66 510,66 510,74 504,74 504,78 522,78 522,74 515,74 	"/>
	<polygon class="st0" points="745,66 740,66 740,74 734,74 734,78 752,78 752,74 745,74 	"/>
	<polygon class="st0" points="953,66 948,66 948,74 943,74 943,78 959,78 959,74 953,74 	"/>
	<polygon class="st0" points="920,66 914,66 914,74 909,74 909,78 925,78 925,74 920,74 	"/>
	<polygon class="st0" points="886,66 881,66 881,74 875,74 875,78 892,78 892,74 886,74 	"/>
	<path class="st0" d="M860.4,66c-3.1,6-8.8,9.1-15.6,9.1c-6.7,0-12.5-3.1-15.6-9.1h-5.2c3.8,9,11.5,13.1,20.8,13.1
		c9.5,0,17.2-4.1,21-13.1H860.4z"/>
	<path class="st0" d="M805.9,66c-3.1,6-8.8,9.1-15.6,9.1c-6.7,0-12.5-3.1-15.6-9.1h-5.2c3.8,9,11.5,13.1,20.8,13.1
		c9.5,0,17.2-4.1,21-13.1H805.9z"/>
	<path class="st0" d="M283,66c-1,5-5.7,9-14.7,9c-4.8,0-9.3-0.9-12.3-2.2V66h-4v9.8c4,1.5,9.7,3.1,16.5,3.1
		c11.9,0,18.2-5.9,19.5-12.9H283z"/>
	<path class="st0" d="M138.5,66H133c3.7,9,11.6,12.8,21.2,12.8c7.5,0,12.8-2.2,16.8-4.3v-3.6c-4,2-9.4,4-15.5,4
		C148,74.8,141.9,72,138.5,66z"/>
	<polygon class="st0" points="189,66 184,66 184,74 177,74 177,78 194,78 194,74 189,74 	"/>
	<polygon class="st0" points="213.9,66 207.8,66 216.6,78 226,78 226,74 220.3,74 	"/>
	<polygon class="st0" points="68,66 63,66 63,74 57,74 57,78 75,78 75,74 68,74 	"/>
	<path class="st0" d="M118,68.8V66h-5v2.1c-3,4.2-10,7-15.1,7c-7.4,0-11.4-3.1-12-9.1h-5.1c0.5,8,6,12.7,16.2,12.7
		c6.1,0,13.2-2.7,16.5-7.7h0.2c0.2,5,2.3,7.2,7.4,7.2c1.6,0,2.9-0.2,3.9-0.5V74h-1.9C119.9,74,118,73.3,118,68.8z"/>
	<path class="st0" d="M355.6,66H350c3.6,9,11.3,12.9,22.2,12.9c7.8,0,13.7-2.1,17.7-4.3V71c-4,2.1-9.7,3.9-17,3.9
		C364.9,74.9,358.9,72,355.6,66z"/>
	<path class="st0" d="M489.3,66c-3.1,6-8.8,9.1-15.6,9.1c-6.7,0-12.5-3.1-15.6-9.1h-5.2c3.8,9,11.5,13.1,20.8,13.1
		c9.5,0,17.2-4.1,21-13.1H489.3z"/>
	<path class="st0" d="M42.3,66c-3.2,6-8.9,9-15.9,9c-5,0-11.4-1-14.4-2.9V66H7v8.9c5,2.6,12.4,3.9,19.4,3.9C36,78.8,43.8,75,47.7,66
		H42.3z"/>
	<path class="st0" d="M431,67.5V66h-5v2.2c0,7.2,3.6,10.4,10.7,10.4c3,0,6.3-0.5,8.3-1.3V74c-1,0.4-4.9,0.7-6.7,0.7
		C433.1,74.8,431,72.4,431,67.5z"/>
	<path class="st0" d="M329,67.5V66h-5v2.2c0,7.2,3.6,10.4,10.7,10.4c3,0,6.3-0.5,8.3-1.3V74c-2,0.4-4.9,0.7-6.7,0.7
		C331.1,74.8,329,72.4,329,67.5z"/>
	<polygon class="st0" points="306,66 301,66 301,74 295,74 295,78 313,78 313,74 306,74 	"/>
</g>
</svg>
