<?xml version="1.0" encoding="utf-8"?>
<!-- Generator: Adobe Illustrator 19.2.1, SVG Export Plug-In . SVG Version: 6.00 Build 0)  -->
<svg version="1.1" id="Layer_1" class='cia__headline-svg cia__headline-svg--inside' xmlns="http://www.w3.org/2000/svg" xmlns:xlink="http://www.w3.org/1999/xlink" x="0px" y="0px"
	 viewBox="0 0 436.8 55" style="enable-background:new 0 0 436.8 55;" xml:space="preserve">
<style type="text/css">
	.st0{fill:#FFFFFF;}
</style>
<g id="base">
	<rect x="338" y="42" class="st0" width="3" height="3"/>
	<rect x="351" y="28" class="st0" width="4" height="17"/>
	<path class="st0" d="M409.1,3h-3.6c0,6-0.7,10-1.7,13h2.3C407.8,13,409.1,9,409.1,3z"/>
	<polygon class="st0" points="351,19 355,19 355,5 360,5 360,3 346,3 346,5 351,5 	"/>
	<polygon class="st0" points="385.9,7 386.2,7 390.2,19 394,19 388.5,3 384.4,3 378.9,19 381.9,19 	"/>
	<rect x="197" y="28" class="st0" width="4" height="17"/>
	<path class="st0" d="M327.1,4.7c5.3,0,7.9,0.8,10.9,2V14h3V4.6c-3-1.5-7.3-2.6-14-2.6c-10.9,0-18.8,6-20.9,17h3.9
		C311.9,9,318.4,4.7,327.1,4.7z"/>
	<polygon class="st0" points="373.4,45 376,37 396,37 398.7,45 402.6,45 397,28 393.2,28 395.1,34 376.9,34 378.9,28 375.8,28 
		370.1,45 	"/>
	<rect x="5" y="28" class="st0" width="3" height="17"/>
	<rect x="218" y="28" class="st0" width="4" height="17"/>
	<rect x="21" y="28" class="st0" width="4" height="17"/>
	<path class="st0" d="M424.7,16.4c3.4,0,6.3,0.7,7.3,1.4V19h3v-3.4c-2-1.1-5.9-1.9-10.2-1.9c-6.3,0-9.8,2.3-11.5,5.3h3.6
		C418.4,18,420.7,16.4,424.7,16.4z"/>
	<path class="st0" d="M420.9,34.1l4.4,1.3c5,1.5,7.9,3.3,7.9,8.6c0,0.3,0,0.6,0,0.9h3.5c0-0.4,0.1-0.9,0.1-1.3
		c0-6.5-3.7-9.3-10-11.1l-4.4-1.4c-2.7-0.8-4.5-1.1-5.6-3.1H413C414.2,31,416.8,32.9,420.9,34.1z"/>
	<rect x="131" y="28" class="st0" width="3" height="17"/>
	<rect x="92" y="28" class="st0" width="3" height="17"/>
	<path class="st0" d="M313.1,45c-2-3.2-3.1-7.6-3.1-13.3V28h-4v3.1c0,5.7,1,10.3,2.9,13.9H313.1z"/>
	<path class="st0" d="M109.1,45c-0.7-2.1-1.1-4.8-1.1-8.1v-3.9c0-1.7,0-2.9,0.2-4.9h-3.7c-0.2,2-0.5,3.4-0.5,5.2v3.3
		c0,3.4,0.4,6.2,1,8.6H109.1z"/>
	<path class="st0" d="M70.6,16.4c3.4,0,6.4,0.7,7.4,1.4V19h3v-3.4c-2-1.1-6-1.9-10.3-1.9c-6.3,0-9.9,2.3-11.5,5.3h3.6
		C64.3,18,66.7,16.4,70.6,16.4z"/>
	<path class="st0" d="M66.9,34.1l4.4,1.3c5,1.5,7.9,3.3,7.9,8.6c0,0.3,0,0.6-0.1,0.9h3.6c0-0.4,0.1-0.9,0.1-1.3
		c0-6.5-3.7-9.3-10-11.1l-4.4-1.4c-2.7-0.8-4.5-1.1-5.6-3.1h-3.8C60.1,31,62.7,32.9,66.9,34.1z"/>
	<polygon class="st0" points="92,19 95,19 95,15 87,15 87,17 92,17 	"/>
	<rect x="91" y="3" class="st0" width="4" height="4"/>
	<polygon class="st0" points="5,19 8,19 8,5 13,5 13,3 0,3 0,5 5,5 	"/>
	<path class="st0" d="M21,19h4h0h2.6c3.3-1,7-2.6,10.1-2.6c3.5,0,5.9,1.6,7.2,2.6h4.2c-1.3-3-4.8-5.1-10-5.1C34,13.9,28.7,16,25,19
		v-4h-8v2h4V19z"/>
	<rect x="46" y="28" class="st0" width="4" height="17"/>
	<rect x="243" y="28" class="st0" width="4" height="17"/>
	<path class="st0" d="M271.2,16.2c3.2,0,5.8,0.8,7.7,2.8h3.9c-2.5-3-6.6-5.4-11.6-5.4c-5,0-9.5,2.4-12.4,5.4h4.3
		C265.3,17,268.2,16.2,271.2,16.2z"/>
	<path class="st0" d="M260.4,45c-0.9-2.3-1.4-5.1-1.4-8.7V35h27v-4.3c0-0.8-0.5-1.7-0.5-2.7h-3.4c0,1-0.1,1.5-0.1,2.1V32h-23.3
		c0-1,0.1-2,0.3-4h-3.5c-0.2,2-0.4,3.3-0.4,4.9v3.3c0,3.5,0.4,6.4,1.2,8.8H260.4z"/>
	<path class="st0" d="M218,19h4h0h2.6c3.3-1,7-2.6,10.1-2.6c3.5,0,5.9,1.6,7.2,2.6h4.2c-1.3-3-4.8-5.1-10-5.1
		c-5.1,0-10.4,2.1-14.1,5.1V0h-8v3h4V19z"/>
	<polygon class="st0" points="197,19 201,19 201,17 210,17 210,15 201,15 201,6 197,6 197,15 193,15 193,17 197,17 	"/>
	<path class="st0" d="M120.7,16.4c3.4,0,7,0.6,9.8,2.6h3.5V0h-8v3h5v14h-0.2c-3-2-7.1-3.1-11.2-3.1c-4.5,0-8.8,2.1-11.7,5.1h4.7
		C114.9,18,117.7,16.4,120.7,16.4z"/>
	<path class="st0" d="M148.5,45c-1-2.3-1.5-5.1-1.5-8.7V35h27v-4.3c0-0.8-0.5-1.7-0.5-2.7h-3.4c0,1-0.1,1.5-0.1,2.1V32h-23.3
		c0-1,0.1-2,0.3-4h-3.5c-0.2,2-0.5,3.3-0.5,4.9v3.3c0,3.5,0.5,6.4,1.3,8.8H148.5z"/>
	<path class="st0" d="M159.3,16.2c3.2,0,5.8,0.8,7.7,2.8h3.9c-2.5-3-6.6-5.4-11.6-5.4c-5,0-9.5,2.4-12.4,5.4h4.3
		C153.3,17,156.2,16.2,159.3,16.2z"/>
</g>
<g id="upper">
	<path class="st0" d="M62.9,19h-3.6c-0.7,2-1,2.9-1,4.6c0,1.7,0.2,3.4,0.7,4.4h3.8c-0.9-1-1.3-2.6-1.3-4.7
		C61.5,21.7,61.9,21,62.9,19z"/>
	<path class="st0" d="M49.1,19h-4.2c0.8,1,1.1,3,1.1,5v4h4v-5.2C50,21.5,49.4,20,49.1,19z"/>
	<path class="st0" d="M112.7,19H108c-1.7,3-2.9,6-3.5,9h3.7C108.9,24,110.5,21,112.7,19z"/>
	<rect x="92" y="19" class="st0" width="3" height="9"/>
	<path class="st0" d="M310.1,19h-3.9c-0.4,2-0.1,4.5-0.1,6.9V28h4v-2.7C310,23.1,309.8,21,310.1,19z"/>
	<path class="st0" d="M151.1,19h-4.3c-1.7,3-2.9,6-3.4,9h3.5C147.5,24,149,21,151.1,19z"/>
	<path class="st0" d="M27.6,19H21v9h4v-7C26,20.4,26.7,20,27.6,19z"/>
	<rect x="197" y="19" class="st0" width="4" height="9"/>
	<rect x="5" y="19" class="st0" width="3" height="9"/>
	<path class="st0" d="M130.5,19c0.1,0,0.5,0.5,0.5,0.6V28h3v-9H130.5z"/>
	<rect x="78" y="19" class="st0" width="3" height="4"/>
	<rect x="351" y="19" class="st0" width="4" height="9"/>
	<polygon class="st0" points="381.9,19 378.9,19 375.8,28 378.9,28 	"/>
	<polygon class="st0" points="394,19 390.2,19 393.2,28 397,28 	"/>
	<path class="st0" d="M417,19h-3.6c-0.7,2-1,2.9-1,4.6c0,1.7,0.2,3.4,0.7,4.4h3.8c-0.9-1-1.3-2.6-1.3-4.7C415.5,21.7,416,21,417,19z
		"/>
	<path class="st0" d="M170.9,19H167c1.8,2,2.9,5,3.1,9h3.4C173.2,25,172.3,22,170.9,19z"/>
	<rect x="432" y="19" class="st0" width="3" height="4"/>
	<path class="st0" d="M224.6,19H218v9h4v-7C223,20.4,223.6,20,224.6,19z"/>
	<path class="st0" d="M282.8,19h-3.9c1.8,2,2.9,5,3.1,9h3.4C285.2,25,284.3,22,282.8,19z"/>
	<path class="st0" d="M246.1,19h-4.2c0.8,1,1.1,3,1.1,5v4h4v-5.2C247,21.5,246.4,20,246.1,19z"/>
	<path class="st0" d="M263.1,19h-4.3c-1.7,3-2.9,6-3.4,9h3.5C259.5,24,261,21,263.1,19z"/>
</g>
<g id="lower">
	<path class="st0" d="M327.2,54.9c7,0,11.8-1.1,13.8-2.6V45h-3v5.2c-2,1.1-5.5,2-10.7,2c-6.1,0-11-2.2-14.1-7.2H309
		C312.5,52,318.8,54.9,327.2,54.9z"/>
	<polygon class="st0" points="370.1,45 367.8,52 364,52 364,54 376,54 376,52 371.1,52 373.3,45 	"/>
	<polygon class="st0" points="346,52 346,54 360,54 360,52 355,52 355,45 351,45 351,52 	"/>
	<path class="st0" d="M271.8,54.7c5.4,0,10.2-1.2,12.2-2.8v-2.4c-2,1.5-6.4,2.5-11.4,2.5c-5.9,0-10.1-2-12.1-7h-4.1
		C258.6,52,264,54.7,271.8,54.7z"/>
	<polygon class="st0" points="13,52 8,52 8,45 5,45 5,52 0,52 0,54 13,54 	"/>
	<polygon class="st0" points="243,45 243,52 239,52 239,54 251,54 251,52 247,52 247,45 	"/>
	<polygon class="st0" points="401,52 396,52 396,54 409,54 409,52 405,52 402.7,45 398.7,45 	"/>
	<path class="st0" d="M58,45v7.9c2,1,6.5,1.9,11.2,1.9c8.6,0,12.8-3.7,13.4-9.7h-3.6c-0.5,4-3.9,7.1-10.4,7.1
		c-3.3,0-5.7-0.4-8.7-1.3V45H58z"/>
	<polygon class="st0" points="17,52 17,54 29,54 29,52 25,52 25,45 21,45 21,52 	"/>
	<polygon class="st0" points="46,45 46,52 42,52 42,54 54,54 54,52 50,52 50,45 	"/>
	<polygon class="st0" points="87,52 87,54 100,54 100,52 95,52 95,45 92,45 92,52 	"/>
	<path class="st0" d="M433.2,45c-0.5,4-3.4,7.1-9.9,7.1c-3.3,0-6.2-0.4-8.2-1.3V45h-3v7.9c2,1,6.5,1.9,11.2,1.9
		c8.6,0,12.8-3.7,13.4-9.7H433.2z"/>
	<polygon class="st0" points="214,52 214,54 226,54 226,52 222,52 222,45 218,45 218,52 	"/>
	<path class="st0" d="M204.4,54.8c2.1,0,4.6-0.4,5.6-0.9v-2.3c0,0.3-3.1,0.5-4.3,0.5c-3.6,0-4.7-1.6-4.7-5V45h-4v2.6
		C197,52.6,199.4,54.8,204.4,54.8z"/>
	<path class="st0" d="M118.8,54.7c5.1,0,9.3-1.7,12.2-4.6V54h8v-2h-5v-7h-3v2.8c-3,2.7-6.7,4.3-11,4.3c-5.1,0-9-1.1-10.8-7.1h-4.1
		C107.1,52,112.1,54.7,118.8,54.7z"/>
	<path class="st0" d="M160.3,54.7c5.4,0,9.7-1.2,12.7-2.8v-2.4c-3,1.5-6.9,2.5-11.9,2.5c-5.9,0-10.3-2-12.5-7h-4.2
		C146.9,52,152.5,54.7,160.3,54.7z"/>
</g>
</svg>
